<?xml version="1.0" standalone="no"?>
<!DOCTYPE svg PUBLIC "-//W3C//DTD SVG 20010904//EN"
 "http://www.w3.org/TR/2001/REC-SVG-20010904/DTD/svg10.dtd">
<svg version="1.0" xmlns="http://www.w3.org/2000/svg"
 width="512.000000pt" height="512.000000pt" viewBox="0 0 512.000000 512.000000"
 preserveAspectRatio="xMidYMid meet">

<g transform="translate(0.000000,512.000000) scale(0.100000,-0.100000)"
fill="#000000" stroke="none">
<path d="M2296 4690 c-69 -21 -115 -103 -96 -169 16 -58 38 -80 120 -121 59
-30 81 -46 86 -64 19 -76 -67 -110 -165 -66 -24 11 -45 20 -48 20 -2 0 -3 -19
-1 -42 4 -57 35 -73 139 -73 65 0 81 4 116 27 50 33 79 98 69 153 -10 49 -56
98 -118 125 -92 39 -122 85 -80 123 25 23 69 21 116 -3 22 -10 43 -17 47 -14
11 6 11 55 1 71 -22 35 -121 52 -186 33z"/>
<path d="M2725 4689 c-55 -21 -97 -61 -122 -116 -66 -143 -25 -326 83 -378
119 -57 280 -4 257 84 -7 26 -5 26 -53 1 -76 -39 -153 -19 -186 47 -24 49 -25
164 -1 210 38 72 102 91 186 53 24 -11 45 -20 47 -20 2 0 4 20 4 45 0 40 -3
46 -32 61 -40 20 -143 28 -183 13z"/>
<path d="M1385 4678 c-3 -7 -4 -121 -3 -253 l3 -240 45 0 45 0 3 103 c3 102 3
102 28 102 51 0 59 -10 123 -162 20 -47 21 -48 65 -48 25 0 48 5 51 11 11 16
-65 188 -92 209 l-23 18 33 21 c40 25 57 58 57 112 0 53 -23 95 -63 116 -43
23 -264 33 -272 11z m210 -93 c14 -13 25 -33 25 -45 0 -38 -44 -70 -95 -70
l-45 0 0 70 0 70 45 0 c35 0 52 -6 70 -25z"/>
<path d="M1834 4677 c-2 -7 -3 -120 -2 -252 l3 -240 142 -3 c135 -2 142 -2
148 18 3 11 3 29 0 40 -6 18 -15 20 -101 20 l-94 0 0 75 0 75 79 0 c71 0 80 2
86 20 3 11 3 29 0 40 -6 18 -15 20 -86 20 l-79 0 0 60 0 60 95 0 95 0 0 40 0
40 -140 0 c-105 0 -142 -3 -146 -13z"/>
<path d="M3027 4684 c-4 -4 -7 -92 -7 -196 0 -168 2 -193 20 -227 31 -62 80
-86 175 -86 101 0 149 22 185 86 24 43 25 50 25 234 l0 190 -45 0 -45 0 -5
-182 c-5 -164 -7 -184 -26 -210 -26 -35 -61 -48 -108 -39 -64 12 -70 34 -76
246 l-5 185 -40 3 c-23 2 -44 0 -48 -4z"/>
<path d="M3544 4677 c-2 -7 -3 -120 -2 -252 l3 -240 142 -3 c135 -2 142 -2
148 18 3 11 3 29 0 40 -6 18 -15 20 -101 20 l-94 0 0 75 0 75 80 0 80 0 0 40
0 40 -80 0 -80 0 0 60 0 60 95 0 95 0 0 40 0 40 -140 0 c-105 0 -142 -3 -146
-13z"/>
<path d="M2260 3655 c0 -8 7 -15 15 -15 8 0 15 7 15 15 0 8 -7 15 -15 15 -8 0
-15 -7 -15 -15z"/>
<path d="M2900 3655 c0 -8 7 -15 15 -15 8 0 15 7 15 15 0 8 -7 15 -15 15 -8 0
-15 -7 -15 -15z"/>
<path d="M1620 3520 c0 -5 5 -10 10 -10 6 0 10 5 10 10 0 6 -4 10 -10 10 -5 0
-10 -4 -10 -10z"/>
<path d="M3550 3520 c0 -5 5 -10 10 -10 6 0 10 5 10 10 0 6 -4 10 -10 10 -5 0
-10 -4 -10 -10z"/>
<path d="M1770 3325 c0 -8 9 -15 20 -15 13 0 22 -9 26 -25 3 -14 11 -25 16
-25 15 0 38 -27 38 -43 0 -9 13 -18 30 -22 21 -5 30 -13 30 -26 0 -10 5 -19
10 -19 6 0 10 -11 10 -25 0 -14 6 -25 14 -25 14 0 32 -122 21 -141 -11 -17 6
-49 26 -49 10 0 19 5 19 10 0 14 27 12 33 -2 3 -7 6 -1 6 15 1 20 6 27 21 27
11 0 20 -7 20 -15 0 -8 9 -15 20 -15 11 0 20 -4 20 -10 0 -5 7 -10 15 -10 8 0
15 -8 15 -19 0 -22 29 -32 76 -24 25 4 34 11 34 24 0 11 -5 19 -11 19 -14 0
-39 25 -39 39 0 6 -7 11 -15 11 -8 0 -15 5 -15 10 0 6 -7 10 -15 10 -8 0 -15
9 -15 19 0 11 -8 22 -17 24 -10 3 -3 5 15 6 27 1 32 5 32 26 0 23 4 25 40 25
22 0 40 5 40 10 0 6 11 10 25 10 16 0 25 6 25 15 0 8 9 15 20 15 11 0 20 5 20
10 0 6 9 10 20 10 13 0 20 7 20 20 0 19 -7 20 -90 20 -83 0 -90 -1 -90 -20 0
-17 -7 -20 -45 -20 -25 0 -45 -4 -45 -10 0 -5 -9 -10 -20 -10 -11 0 -20 5 -20
10 0 6 -18 10 -40 10 -33 0 -40 3 -40 19 0 13 -8 21 -22 23 -15 2 -24 11 -26
26 -2 12 -8 22 -13 22 -14 0 -39 26 -39 39 0 6 -7 11 -15 11 -8 0 -15 5 -15
10 0 6 -11 10 -25 10 -14 0 -25 -4 -25 -10 0 -5 -7 -10 -15 -10 -8 0 -15 5
-15 10 0 6 7 10 15 10 8 0 15 7 15 15 0 11 -11 15 -40 15 -29 0 -40 -4 -40
-15z m340 -325 c0 -13 -7 -20 -20 -20 -13 0 -20 7 -20 20 0 13 7 20 20 20 13
0 20 -7 20 -20z m-80 -55 c0 -8 -9 -15 -20 -15 -11 0 -20 7 -20 15 0 8 9 15
20 15 11 0 20 -7 20 -15z"/>
<path d="M3340 3300 c0 -5 -18 -10 -40 -10 -22 0 -40 -5 -40 -11 0 -14 -25
-39 -39 -39 -6 0 -11 -9 -11 -19 0 -12 -9 -21 -25 -25 -16 -4 -25 -13 -25 -26
0 -17 -7 -20 -40 -20 -22 0 -40 -4 -40 -10 0 -5 -9 -10 -20 -10 -11 0 -20 -6
-20 -12 0 -36 14 -88 24 -91 6 -2 3 -3 -6 -2 -13 2 -18 -4 -18 -21 0 -17 -6
-24 -19 -24 -20 0 -31 -18 -31 -51 0 -10 -7 -19 -15 -19 -8 0 -15 -9 -15 -20
0 -11 7 -20 15 -20 8 0 15 9 15 20 0 15 7 20 25 20 18 0 26 7 31 25 5 20 12
25 39 25 27 0 34 -5 39 -25 5 -18 13 -25 31 -25 14 0 25 5 25 10 0 6 7 10 15
10 8 0 15 7 15 15 0 8 -7 15 -15 15 -10 0 -15 10 -15 30 0 20 5 30 15 30 11 0
15 11 15 40 0 29 4 40 15 40 8 0 15 5 15 11 0 13 25 39 39 39 5 0 13 20 17 45
4 30 11 45 21 45 8 0 21 6 29 14 16 17 19 56 4 56 -5 0 -10 -4 -10 -10z m-216
-195 c4 -14 13 -25 21 -25 9 0 15 -10 15 -25 0 -16 -6 -25 -15 -25 -8 0 -15 9
-15 19 0 33 -11 51 -31 51 -10 0 -19 7 -19 15 0 26 37 17 44 -10z"/>
<path d="M2540 2890 c0 -15 -7 -20 -27 -21 -16 0 -22 -3 -15 -6 6 -2 12 -18
12 -34 l0 -29 -65 0 c-65 0 -66 0 -71 30 -5 25 -11 30 -35 30 -20 0 -29 -5
-29 -16 0 -18 -23 -44 -39 -44 -6 0 -11 -7 -11 -15 0 -8 5 -15 11 -15 19 0 39
-28 39 -54 0 -21 -5 -26 -25 -26 -18 0 -25 -5 -25 -20 0 -11 -4 -20 -10 -20
-6 0 -10 -48 -10 -125 l0 -125 50 0 c43 0 50 -3 50 -20 0 -11 -7 -20 -15 -20
-10 0 -15 -11 -15 -35 0 -19 -4 -35 -10 -35 -5 0 -10 -11 -10 -25 0 -14 -4
-25 -9 -25 -23 0 -41 14 -41 31 0 10 -7 19 -15 19 -8 0 -15 5 -15 10 0 6 -7
10 -15 10 -12 0 -15 13 -15 55 0 42 -3 55 -15 55 -12 0 -15 13 -15 55 0 40 -4
55 -14 55 -15 0 -26 -21 -26 -51 0 -12 -7 -19 -20 -19 -13 0 -20 -7 -20 -20 0
-13 -7 -20 -20 -20 -16 0 -20 -7 -20 -30 0 -20 5 -30 15 -30 10 0 15 -16 18
-57 l3 -58 2 58 c2 50 5 57 22 57 18 0 20 -7 20 -59 0 -54 2 -59 20 -54 16 4
20 0 20 -21 0 -16 -5 -26 -15 -26 -8 0 -15 -4 -15 -10 0 -5 7 -10 15 -10 8 0
15 5 15 10 0 6 14 10 30 10 23 0 30 5 30 19 0 11 -8 22 -17 24 -12 3 -8 5 9 6
38 2 58 -9 58 -30 0 -14 7 -19 25 -19 14 0 25 -4 25 -10 0 -5 7 -10 15 -10 8
0 15 -7 15 -15 0 -8 -7 -15 -15 -15 -8 0 -15 -4 -15 -10 0 -5 7 -10 15 -10 8
0 15 5 15 10 0 6 6 10 14 10 8 0 17 11 20 25 6 24 46 37 46 15 0 -5 16 -10 35
-10 24 0 35 -5 35 -15 0 -8 5 -15 10 -15 14 0 12 27 -2 34 -10 5 -10 7 0 12
14 7 16 44 2 44 -5 0 -10 -9 -10 -20 0 -11 -7 -20 -15 -20 -8 0 -15 9 -15 20
0 20 13 25 58 21 21 -2 22 2 22 59 l0 60 55 0 55 0 0 -54 0 -54 40 -7 c30 -5
40 -11 40 -26 0 -15 7 -19 31 -19 30 0 59 -19 59 -39 0 -6 18 -11 40 -11 29 0
40 4 40 15 0 8 7 15 15 15 8 0 15 5 15 10 0 6 7 10 15 10 8 0 15 9 15 19 0 13
-9 21 -30 26 -21 5 -30 13 -30 26 0 10 -7 19 -15 19 -10 0 -15 11 -15 35 0 31
-3 35 -25 35 -18 0 -25 5 -25 20 0 17 7 20 40 20 33 0 40 -3 40 -20 0 -11 7
-20 15 -20 8 0 15 -4 15 -10 0 -5 -7 -10 -15 -10 -9 0 -15 -9 -15 -25 0 -16 6
-25 15 -25 8 0 15 5 15 10 0 6 7 10 15 10 8 0 15 7 15 15 0 8 6 15 14 15 10 0
15 23 18 91 3 50 3 100 1 110 -6 22 -33 26 -33 4 0 -8 -7 -15 -15 -15 -8 0
-15 -4 -15 -10 0 -5 7 -10 15 -10 9 0 15 -9 15 -25 0 -16 -6 -25 -15 -25 -8 0
-15 -9 -15 -20 0 -19 -7 -20 -125 -20 -118 0 -125 1 -125 20 0 19 7 20 95 20
l95 0 0 50 c0 47 -2 50 -25 50 -14 0 -25 5 -25 10 0 6 11 10 25 10 14 0 25 -4
25 -10 0 -5 7 -10 15 -10 8 0 15 9 15 20 0 19 -7 20 -110 20 -91 0 -110 3
-110 15 0 13 22 15 140 15 87 0 140 4 140 10 0 6 -20 10 -45 10 -43 0 -45 1
-45 30 0 20 5 30 15 30 10 0 15 10 15 30 0 20 5 30 15 30 9 0 15 9 15 25 0 16
-6 25 -15 25 -8 0 -15 9 -15 20 0 15 -7 20 -25 20 -18 0 -25 -5 -25 -20 0 -11
-7 -20 -15 -20 -8 0 -15 -4 -15 -10 0 -5 -18 -10 -40 -10 -36 0 -40 -2 -40
-25 0 -21 -5 -25 -31 -25 -30 0 -31 -2 -26 -32 3 -18 3 -27 0 -20 -6 15 -113
17 -113 2 0 -5 -7 -10 -15 -10 -8 0 -15 5 -15 10 0 6 -7 10 -15 10 -10 0 -15
10 -15 30 l0 30 70 0 c56 0 70 3 70 15 0 8 7 15 15 15 8 0 15 -7 15 -15 0 -9
9 -15 25 -15 16 0 25 6 25 15 0 9 -9 15 -25 15 -21 0 -25 5 -25 29 0 25 5 30
28 34 l27 4 -27 2 c-21 1 -28 6 -28 21 0 11 -7 20 -15 20 -8 0 -15 -9 -15 -20
0 -11 -7 -20 -15 -20 -8 0 -15 9 -15 20 0 17 -7 20 -40 20 -33 0 -40 -3 -40
-20z m260 -150 c0 -20 -5 -30 -15 -30 -10 0 -15 10 -15 30 0 20 5 30 15 30 10
0 15 -10 15 -30z m-290 -125 c0 -12 -14 -15 -70 -15 l-70 0 0 -35 c0 -34 -1
-35 -40 -35 -39 0 -40 1 -40 35 0 24 -5 35 -15 35 -8 0 -15 7 -15 15 0 13 21
15 125 15 104 0 125 -2 125 -15z m0 -45 c0 -5 -18 -10 -40 -10 -22 0 -40 5
-40 10 0 6 18 10 40 10 22 0 40 -4 40 -10z m290 0 c0 -5 -7 -10 -15 -10 -8 0
-15 5 -15 10 0 6 7 10 15 10 8 0 15 -4 15 -10z m-370 -75 c0 -9 -9 -15 -25
-15 -16 0 -25 6 -25 15 0 9 9 15 25 15 16 0 25 -6 25 -15z m370 0 c0 -10 -10
-15 -30 -15 -20 0 -30 5 -30 15 0 10 10 15 30 15 20 0 30 -5 30 -15z m-460
-45 c0 -28 -2 -30 -40 -30 -33 0 -40 3 -40 20 0 11 7 20 15 20 8 0 15 5 15 10
0 6 11 10 25 10 21 0 25 -5 25 -30z m170 -10 c0 -18 -7 -20 -65 -20 -58 0 -65
2 -65 20 0 18 7 20 65 20 58 0 65 -2 65 -20z m290 -60 c0 -11 -7 -20 -15 -20
-8 0 -15 9 -15 20 0 11 7 20 15 20 8 0 15 -9 15 -20z m-310 -30 c0 -5 -7 -10
-15 -10 -8 0 -15 5 -15 10 0 6 7 10 15 10 8 0 15 -4 15 -10z m240 -25 c0 -8
-9 -15 -20 -15 -11 0 -20 7 -20 15 0 8 9 15 20 15 11 0 20 -7 20 -15z"/>
<path d="M1500 2840 c0 -13 7 -20 20 -20 13 0 20 7 20 20 0 13 -7 20 -20 20
-13 0 -20 -7 -20 -20z"/>
<path d="M3682 2840 c0 -14 2 -19 5 -12 2 6 2 18 0 25 -3 6 -5 1 -5 -13z"/>
<path d="M2930 2590 c0 -5 7 -10 15 -10 8 0 15 5 15 10 0 6 -7 10 -15 10 -8 0
-15 -4 -15 -10z"/>
<path d="M1981 2353 c0 -7 -8 -13 -16 -13 -9 0 -15 -9 -15 -25 0 -14 -4 -25
-10 -25 -5 0 -10 -11 -10 -25 0 -14 5 -25 10 -25 6 0 10 -32 10 -75 0 -60 3
-75 15 -75 12 0 15 -16 15 -84 0 -81 -1 -84 -25 -90 -16 -4 -25 -13 -25 -26 0
-11 -7 -20 -15 -20 -8 0 -15 -4 -15 -10 0 -5 -7 -10 -15 -10 -8 0 -15 -7 -15
-15 0 -8 -4 -15 -10 -15 -5 0 -10 -11 -10 -25 0 -15 -6 -25 -15 -25 -8 0 -17
-14 -21 -35 -5 -30 -10 -35 -35 -35 -16 0 -29 -4 -29 -10 0 -5 5 -10 10 -10 6
0 10 -7 10 -15 0 -11 11 -15 40 -15 29 0 40 4 40 15 0 9 9 15 25 15 14 0 25 5
25 10 0 6 7 10 15 10 8 0 15 9 15 20 0 11 5 20 10 20 6 0 10 7 10 15 0 8 9 15
20 15 15 0 20 7 20 25 0 22 4 25 35 25 24 0 35 5 35 15 0 9 9 15 25 15 14 0
25 5 25 10 0 6 9 10 20 10 11 0 20 -4 20 -10 0 -5 14 -10 30 -10 20 0 30 -5
30 -15 0 -12 16 -15 85 -15 50 0 85 -4 85 -10 0 -16 37 -11 44 6 10 27 7 34
-19 34 -20 0 -27 6 -31 29 -6 27 -11 30 -60 36 -44 5 -54 10 -54 26 0 16 -7
19 -40 19 -36 0 -40 3 -40 25 0 16 6 25 15 25 8 0 15 5 15 10 0 6 7 10 15 10
9 0 15 9 15 25 0 18 7 26 25 31 25 6 37 44 14 44 -14 0 -39 25 -39 39 0 6 -7
11 -15 11 -8 0 -15 -7 -15 -15 0 -8 -7 -15 -15 -15 -8 0 -15 -4 -15 -10 0 -5
-7 -10 -15 -10 -8 0 -15 -8 -15 -19 0 -18 -25 -31 -62 -31 -14 0 -18 8 -18 34
0 66 -12 126 -26 126 -9 0 -14 12 -14 35 0 28 -4 35 -19 35 -14 0 -21 8 -24
28 -2 15 -5 21 -6 15z"/>
<path d="M3180 2280 c0 -16 -4 -30 -10 -30 -5 0 -10 -16 -10 -35 0 -23 -5 -35
-14 -35 -9 0 -16 -17 -21 -51 l-7 -50 -37 3 c-29 2 -37 8 -39 26 -2 14 -10 22
-22 22 -10 0 -21 6 -23 13 -4 10 -6 10 -6 0 -1 -7 -8 -13 -16 -13 -9 0 -15 -9
-15 -25 0 -15 6 -25 14 -25 9 0 16 -17 21 -50 6 -40 11 -50 26 -50 10 0 19 -4
19 -10 0 -5 -25 -10 -55 -10 -48 0 -55 -2 -55 -20 0 -15 -7 -20 -27 -20 -64 0
-103 -12 -103 -31 0 -11 -7 -19 -15 -19 -8 0 -15 -4 -15 -10 0 -5 -7 -10 -15
-10 -8 0 -15 -7 -15 -15 0 -8 7 -15 15 -15 8 0 15 -4 15 -10 0 -5 7 -10 15
-10 8 0 15 5 15 10 0 6 28 10 65 10 51 0 65 3 65 15 0 12 13 15 60 15 33 0 60
4 60 10 0 6 7 10 15 10 8 0 15 -4 15 -10 0 -5 11 -10 25 -10 16 0 25 -6 25
-15 0 -8 5 -15 11 -15 14 0 39 -25 39 -39 0 -6 14 -11 30 -11 20 0 30 -5 30
-15 0 -8 5 -15 10 -15 6 0 10 -9 10 -20 0 -11 7 -20 15 -20 8 0 17 -11 21 -25
6 -23 10 -25 70 -25 50 0 64 3 64 15 0 8 -9 15 -20 15 -11 0 -20 5 -20 10 0 6
-7 10 -15 10 -10 0 -15 11 -15 35 0 19 -4 35 -10 35 -5 0 -10 7 -10 15 0 8 -9
15 -20 15 -13 0 -22 9 -26 25 -3 14 -11 25 -16 25 -16 0 -38 28 -38 49 0 12
-6 21 -15 21 -13 0 -15 24 -15 160 0 136 2 160 15 160 10 0 15 11 15 35 0 32
-2 35 -30 35 -27 0 -30 -3 -30 -30z m-60 -285 c0 -8 -9 -15 -20 -15 -11 0 -20
7 -20 15 0 8 9 15 20 15 11 0 20 -7 20 -15z"/>
<path d="M2558 2243 c-22 -5 -24 -43 -3 -43 8 0 15 -4 15 -10 0 -5 11 -10 25
-10 22 0 25 4 25 35 0 36 -11 41 -62 28z"/>
<path d="M1500 2165 c0 -8 9 -15 20 -15 11 0 20 7 20 15 0 8 -9 15 -20 15 -11
0 -20 -7 -20 -15z"/>
<path d="M2684 2145 c-8 -47 1 -67 28 -63 15 2 24 11 26 26 3 18 -1 22 -22 22
-14 0 -26 5 -26 10 0 6 9 10 20 10 11 0 20 7 20 15 0 8 -9 15 -20 15 -14 0
-21 -9 -26 -35z"/>
<path d="M3681 2164 c0 -11 3 -14 6 -6 3 7 2 16 -1 19 -3 4 -6 -2 -5 -13z"/>
<path d="M1422 2110 c0 -14 2 -19 5 -12 2 6 2 18 0 25 -3 6 -5 1 -5 -13z"/>
<path d="M2800 2110 c0 -11 -7 -20 -15 -20 -10 0 -15 -10 -15 -30 0 -28 -2
-30 -40 -30 -36 0 -40 3 -40 25 0 18 -5 25 -20 25 -16 0 -20 -7 -20 -35 l0
-35 60 0 c33 0 60 4 60 10 0 6 7 10 15 10 10 0 15 10 15 30 0 17 5 30 10 30 6
0 10 9 10 20 0 11 -4 20 -10 20 -5 0 -10 -9 -10 -20z"/>
<path d="M1380 2055 c0 -18 5 -25 20 -25 15 0 20 7 20 25 0 18 -5 25 -20 25
-15 0 -20 -7 -20 -25z"/>
<path d="M2600 2055 c0 -14 5 -25 10 -25 6 0 10 11 10 25 0 14 -4 25 -10 25
-5 0 -10 -11 -10 -25z"/>
<path d="M1371 1938 c-1 -21 -6 -28 -21 -28 -12 0 -20 -7 -20 -16 0 -18 -23
-44 -39 -44 -7 0 -11 -38 -11 -110 0 -91 3 -110 15 -110 8 0 15 -5 15 -11 0
-17 27 -39 49 -39 16 0 21 -6 21 -26 0 -25 2 -26 43 -21 23 3 34 3 25 0 -12
-3 -18 -14 -18 -34 0 -27 3 -29 35 -29 19 0 35 5 35 10 0 6 9 10 20 10 15 0
20 -7 20 -25 0 -14 5 -25 10 -25 6 0 10 20 10 45 0 39 -3 45 -24 51 -23 5 -26
13 -32 75 -6 58 -9 69 -25 69 -16 0 -19 8 -19 45 0 31 -4 45 -14 45 -9 0 -15
21 -20 70 -6 59 -10 70 -26 70 -13 0 -20 9 -23 28 l-4 27 -2 -27z m49 -228 c0
-23 -4 -30 -20 -30 -16 0 -20 7 -20 30 0 23 4 30 20 30 16 0 20 -7 20 -30z"/>
<path d="M1560 1810 c0 -5 7 -10 15 -10 8 0 15 5 15 10 0 6 -7 10 -15 10 -8 0
-15 -4 -15 -10z"/>
<path d="M1560 1720 c0 -11 7 -20 15 -20 8 0 15 -4 15 -10 0 -5 7 -10 15 -10
9 0 15 -9 15 -25 0 -14 5 -25 10 -25 6 0 10 -7 10 -15 0 -8 7 -15 15 -15 8 0
15 7 15 15 0 9 9 15 25 15 14 0 25 5 25 10 0 6 -11 10 -25 10 -20 0 -25 5 -25
25 0 20 -5 25 -25 25 -18 0 -25 5 -25 20 0 16 -7 20 -30 20 -23 0 -30 -4 -30
-20z m110 -80 c0 -5 -7 -10 -15 -10 -8 0 -15 5 -15 10 0 6 7 10 15 10 8 0 15
-4 15 -10z"/>
<path d="M1620 1500 c0 -20 -5 -30 -15 -30 -8 0 -15 -7 -15 -15 0 -8 7 -15 15
-15 8 0 15 7 15 15 0 9 9 15 25 15 21 0 25 5 25 30 0 25 -4 30 -25 30 -21 0
-25 -5 -25 -30z"/>
<path d="M3520 1510 c0 -11 6 -20 14 -20 8 0 16 -6 19 -12 2 -8 8 -9 13 -4 5
5 4 11 -3 13 -7 3 -13 13 -13 24 0 10 -7 19 -15 19 -8 0 -15 -9 -15 -20z"/>
<path d="M1421 1424 c0 -11 3 -14 6 -6 3 7 2 16 -1 19 -3 4 -6 -2 -5 -13z"/>
<path d="M2260 1345 c0 -16 6 -25 15 -25 9 0 15 9 15 25 0 16 -6 25 -15 25 -9
0 -15 -9 -15 -25z"/>
<path d="M2900 1345 c0 -16 6 -25 15 -25 9 0 15 9 15 25 0 16 -6 25 -15 25 -9
0 -15 -9 -15 -25z"/>
<path d="M1500 807 c-56 -19 -116 -86 -136 -153 -34 -116 -1 -266 70 -318 114
-85 316 -41 289 63 -7 26 -5 26 -53 1 -76 -39 -153 -19 -186 47 -24 48 -25
164 -2 208 38 72 105 93 180 56 25 -11 47 -21 51 -21 4 0 7 20 7 45 0 37 -4
47 -25 61 -32 21 -147 28 -195 11z"/>
<path d="M2261 807 c-58 -19 -117 -83 -136 -152 -33 -113 -8 -252 57 -312 31
-30 100 -53 155 -53 161 0 253 100 253 275 0 169 -83 257 -240 254 -30 -1 -70
-6 -89 -12z m174 -97 c47 -44 59 -204 21 -278 -22 -43 -68 -65 -123 -59 -55 6
-88 35 -102 92 -30 117 3 235 74 266 34 15 104 3 130 -21z"/>
<path d="M1793 794 c-7 -19 5 -472 13 -485 3 -5 63 -9 135 -9 l129 0 0 40 0
40 -85 0 -85 0 -2 213 -3 212 -48 3 c-37 2 -49 -1 -54 -14z"/>
<path d="M2630 796 c0 -14 131 -406 156 -464 13 -33 14 -33 75 -30 l62 3 79
235 c42 129 78 243 78 253 0 15 -7 18 -47 15 l-48 -3 -62 -200 c-33 -110 -64
-193 -67 -185 -3 8 -28 89 -56 180 -69 226 -60 210 -120 210 -36 0 -50 -4 -50
-14z"/>
<path d="M3150 795 c-10 -12 -12 -66 -6 -247 4 -127 9 -235 12 -239 3 -5 68
-9 144 -9 130 0 139 1 145 20 3 11 3 29 0 40 -6 18 -15 20 -101 20 l-94 0 0
75 0 75 79 0 c71 0 80 2 86 20 3 11 3 29 0 40 -6 18 -15 20 -86 20 l-79 0 0
60 0 60 94 0 c86 0 95 2 101 20 3 11 3 29 0 40 -6 19 -15 20 -144 20 -113 0
-141 -3 -151 -15z"/>
<path d="M3540 795 c-10 -12 -11 -66 -4 -253 l9 -237 45 0 45 0 3 103 c3 102
3 102 28 102 51 0 59 -10 123 -162 20 -47 20 -48 66 -48 29 0 48 5 51 13 7 18
-62 176 -89 205 -18 20 -19 24 -7 32 8 5 18 10 23 10 19 0 47 68 47 115 0 100
-57 134 -221 135 -83 0 -109 -3 -119 -15z m216 -91 c49 -48 7 -114 -72 -114
l-44 0 0 70 0 70 45 0 c36 0 52 -6 71 -26z"/>
</g>
</svg>
